<svg width="205" height="74" viewBox="0 0 205 74" fill="none" xmlns="http://www.w3.org/2000/svg">
    <g clip-path="url(#clip0_611_16204)">
        <path
            d="M36.8794 0C16.5128 0 0 16.507 0 36.8794C0 41.0278 0.687552 45.0202 1.95288 48.7469C1.95288 48.7469 1.95866 48.7584 1.95866 48.7815C2.12043 49.4055 4.46042 58.8868 0 67.3628L13.6182 65.4966C19.9621 70.6619 28.0567 73.7587 36.8794 73.7587C57.2459 73.7587 73.7587 57.2459 73.7587 36.8794C73.7587 16.5128 57.2459 0 36.8794 0ZM53.0571 57.0322C48.9895 60.3601 43.778 62.0241 37.434 62.0241C33.8576 62.0241 30.5758 61.4232 27.5888 60.2215C24.5959 59.0197 22.0537 57.3384 19.9621 55.1833C17.8648 53.0224 16.2297 50.4513 15.0626 47.4642C13.8897 44.4713 13.3062 41.1896 13.3062 37.6189C13.3062 34.0483 13.8435 30.4834 14.9239 27.3114C15.9986 24.1337 17.5875 21.395 19.6848 19.0839C21.7763 16.7728 24.3359 14.9701 27.3576 13.6759C30.3736 12.3817 33.8287 11.7346 37.7114 11.7346C40.5425 11.7346 43.2696 12.1044 45.8927 12.8439C48.51 13.5835 50.85 14.7044 52.9184 16.2181C54.9811 17.7261 56.6624 19.6039 57.9566 21.8572C59.2508 24.1048 59.9904 26.7683 60.1753 29.8536H47.3255C46.4589 24.3648 43.2233 21.6261 37.6189 21.6261C35.5216 21.6261 33.7652 22.0999 32.3496 23.059C30.9283 24.0123 29.7727 25.243 28.883 26.7568C27.9874 28.2647 27.3576 29.9287 26.9879 31.7487C26.6181 33.5629 26.4332 35.3656 26.4332 37.1567C26.4332 38.9478 26.6181 40.6349 26.9879 42.426C27.3576 44.2113 27.9585 45.8291 28.7905 47.2793C29.6225 48.7238 30.7434 49.914 32.1647 50.8384C33.5803 51.7629 35.3078 52.2251 37.3416 52.2251C40.4847 52.2251 42.8998 51.3469 44.5984 49.5904C46.2913 47.834 47.3544 45.4767 47.7878 42.5185H60.4526C59.5859 48.8624 57.1246 53.7042 53.0571 57.0322Z"
            fill="#4B73D9" />
    </g>
    <path
        d="M118.135 58H123.334V56.8237H119.709V50.1797H118.135V58ZM124.172 56.2974C124.172 56.8918 124.373 57.3429 124.774 57.6509C125.178 57.9552 125.669 58.1074 126.245 58.1074C126.725 58.1074 127.124 58.0215 127.443 57.8496C127.762 57.6742 127.982 57.4736 128.104 57.248C128.114 57.3841 128.138 57.522 128.174 57.6616C128.213 57.8013 128.256 57.9141 128.302 58H129.801V57.9141C129.733 57.7637 129.679 57.5846 129.64 57.377C129.6 57.1693 129.581 56.9508 129.581 56.7217V53.9878C129.581 53.3361 129.361 52.8491 128.92 52.5269C128.48 52.2046 127.867 52.0435 127.083 52.0435C126.303 52.0435 125.674 52.2171 125.198 52.5645C124.722 52.9118 124.484 53.3343 124.484 53.832V53.8911H125.998V53.832C125.998 53.6279 126.077 53.4525 126.235 53.3057C126.396 53.1589 126.662 53.0854 127.035 53.0854C127.411 53.0854 127.674 53.1696 127.824 53.3379C127.975 53.5026 128.05 53.7192 128.05 53.9878V54.3691H126.879C126.099 54.3727 125.452 54.5392 124.94 54.8687C124.428 55.1981 124.172 55.6743 124.172 56.2974ZM125.703 56.2007C125.703 55.9214 125.814 55.703 126.036 55.5454C126.261 55.3879 126.598 55.3091 127.046 55.3091H128.05V55.9429C128.05 56.2293 127.914 56.4889 127.642 56.7217C127.37 56.9508 127.051 57.0654 126.686 57.0654C126.346 57.0654 126.097 56.9884 125.939 56.8345C125.782 56.6769 125.703 56.4657 125.703 56.2007ZM131.272 55.7495C131.272 56.5981 131.46 57.2033 131.836 57.5649C132.212 57.9266 132.707 58.1074 133.319 58.1074C133.684 58.1074 134.019 58.0394 134.323 57.9033C134.628 57.7637 134.875 57.5685 135.064 57.3179H135.091L135.129 58H136.574V52.2046H135.043V56.1147C134.928 56.3582 134.762 56.5588 134.543 56.7163C134.329 56.8739 134.085 56.9526 133.813 56.9526C133.494 56.9526 133.245 56.8649 133.066 56.6895C132.891 56.514 132.803 56.2114 132.803 55.7817V52.2046H131.272V55.7495ZM138.282 58H139.812V54.0898C139.93 53.8356 140.099 53.6333 140.317 53.4829C140.536 53.3289 140.779 53.252 141.048 53.252C141.37 53.252 141.617 53.3379 141.789 53.5098C141.964 53.6781 142.052 53.9663 142.052 54.3745V58H143.583V54.4067C143.583 53.5581 143.393 52.9601 143.013 52.6128C142.634 52.2655 142.134 52.0918 141.515 52.0918C141.15 52.0918 140.815 52.1634 140.511 52.3066C140.21 52.4499 139.97 52.6432 139.791 52.8867H139.764L139.726 52.2046H138.282V58ZM144.92 55.1855C144.92 56.0807 145.187 56.8005 145.72 57.3447C146.254 57.889 146.975 58.1611 147.885 58.1611C148.744 58.1611 149.401 57.9481 149.856 57.522C150.314 57.0923 150.543 56.6035 150.543 56.0557V56.0073H149.045V56.0503C149.045 56.3117 148.954 56.5426 148.771 56.7432C148.588 56.9437 148.289 57.0439 147.874 57.0439C147.401 57.0439 147.05 56.8739 146.821 56.5337C146.596 56.1935 146.483 55.7603 146.483 55.2339V54.9707C146.483 54.4408 146.598 54.0075 146.827 53.6709C147.059 53.3307 147.41 53.1606 147.879 53.1606C148.277 53.1606 148.571 53.2573 148.76 53.4507C148.95 53.644 149.045 53.8768 149.045 54.1489V54.1973H150.549L150.543 54.1328C150.526 53.5814 150.293 53.0962 149.845 52.6772C149.398 52.2547 148.744 52.0435 147.885 52.0435C146.975 52.0435 146.254 52.3156 145.72 52.8599C145.187 53.4041 144.92 54.1221 144.92 55.0137V55.1855ZM151.827 58H153.358V54.1167C153.472 53.8553 153.632 53.6458 153.836 53.4883C154.043 53.3307 154.287 53.252 154.566 53.252C154.885 53.252 155.134 53.3415 155.313 53.5205C155.495 53.696 155.587 53.9932 155.587 54.4121V58H157.112V54.3691C157.112 53.5563 156.928 52.9744 156.559 52.6235C156.194 52.2726 155.712 52.0972 155.114 52.0972C154.72 52.0972 154.375 52.1724 154.077 52.3228C153.784 52.4731 153.544 52.679 153.358 52.9404V49.7607H151.827V58ZM158.465 55.1855C158.465 56.07 158.73 56.7879 159.26 57.3394C159.794 57.8872 160.54 58.1611 161.5 58.1611C162.094 58.1611 162.608 58.0483 163.042 57.8228C163.478 57.5972 163.788 57.3286 163.971 57.0171L162.934 56.2812C162.784 56.4889 162.587 56.6698 162.343 56.8237C162.103 56.9777 161.817 57.0547 161.484 57.0547C160.983 57.0547 160.607 56.8846 160.356 56.5444C160.109 56.2007 159.985 55.762 159.985 55.2285V54.9707C159.985 54.43 160.102 53.9896 160.335 53.6494C160.567 53.3057 160.902 53.1338 161.339 53.1338C161.761 53.1338 162.071 53.2627 162.268 53.5205C162.465 53.7783 162.564 54.0701 162.564 54.396V54.4819H159.513V55.4756H164.089V54.917C164.089 54.029 163.849 53.3289 163.369 52.8169C162.889 52.3013 162.218 52.0435 161.355 52.0435C160.499 52.0435 159.803 52.3174 159.266 52.8652C158.732 53.4131 158.465 54.1292 158.465 55.0137V55.1855ZM165.394 58H166.925V54.1973C167.021 53.9645 167.174 53.7712 167.381 53.6172C167.589 53.4632 167.832 53.3862 168.112 53.3862C168.198 53.3862 168.278 53.3898 168.353 53.397C168.429 53.4041 168.5 53.4167 168.568 53.4346V52.124C168.532 52.1097 168.473 52.0936 168.391 52.0757C168.312 52.0578 168.235 52.0488 168.16 52.0488C167.881 52.0488 167.634 52.1294 167.419 52.2905C167.204 52.4517 167.034 52.6414 166.909 52.8599H166.882L166.839 52.2046H165.394V58Z"
        fill="#4B73D9" />
    <path
        d="M79.9375 41.708C79.9375 43.2119 80.4111 44.3447 81.3584 45.1064C82.3154 45.8682 83.541 46.249 85.0352 46.249C86.2852 46.249 87.3252 46.0293 88.1553 45.5898C88.9951 45.1406 89.5664 44.6377 89.8691 44.0811C89.9082 44.4326 89.9717 44.7842 90.0596 45.1357C90.1475 45.4775 90.2549 45.7656 90.3818 46H94.9082V45.7803C94.7129 45.3896 94.5615 44.9258 94.4541 44.3887C94.3467 43.8418 94.293 43.2705 94.293 42.6748V36.0244C94.293 34.2471 93.7266 32.9482 92.5938 32.1279C91.4609 31.2979 89.8398 30.8828 87.7305 30.8828C85.6406 30.8828 83.9609 31.3125 82.6914 32.1719C81.4219 33.0312 80.7871 34.1396 80.7871 35.4971V35.7607L85.1816 35.7754V35.5264C85.1816 35.0088 85.3623 34.5889 85.7236 34.2666C86.085 33.9346 86.6709 33.7686 87.4814 33.7686C88.3018 33.7686 88.8779 33.9639 89.21 34.3545C89.542 34.7451 89.708 35.2725 89.708 35.9365V36.8008H86.5439C84.6104 36.8008 83.0234 37.2207 81.7832 38.0605C80.5527 38.9004 79.9375 40.1162 79.9375 41.708ZM84.5078 41.3271C84.5078 40.6631 84.752 40.1699 85.2402 39.8477C85.7383 39.5254 86.5 39.3643 87.5254 39.3643H89.708V40.668C89.708 41.4004 89.4199 42.0352 88.8438 42.5723C88.2676 43.1094 87.5693 43.3779 86.749 43.3779C85.9873 43.3779 85.4209 43.1973 85.0498 42.8359C84.6885 42.4648 84.5078 41.9619 84.5078 41.3271ZM98.2475 46H102.891V36.8301C103.184 36.1953 103.609 35.6777 104.165 35.2773C104.732 34.877 105.342 34.6768 105.996 34.6768C106.26 34.6768 106.499 34.6914 106.714 34.7207C106.939 34.75 107.139 34.7891 107.315 34.8379V31.1172C107.227 31.0781 107.066 31.0391 106.831 31C106.607 30.9512 106.377 30.9268 106.143 30.9268C105.42 30.9268 104.771 31.1318 104.195 31.542C103.628 31.9521 103.179 32.4502 102.847 33.0361H102.788L102.73 31.2783H98.2475V46ZM109.966 46H114.609V31.2783H109.966V46ZM109.643 26.8252C109.643 27.5088 109.868 28.085 110.317 28.5537C110.776 29.0225 111.426 29.2568 112.265 29.2568C113.125 29.2568 113.784 29.0225 114.243 28.5537C114.702 28.085 114.931 27.5088 114.931 26.8252C114.931 26.1416 114.702 25.5703 114.243 25.1113C113.794 24.6523 113.144 24.4229 112.295 24.4229C111.435 24.4229 110.776 24.6572 110.317 25.126C109.868 25.585 109.643 26.1514 109.643 26.8252ZM118.549 46H123.134V41.6641L132.992 31.2783H127.851L123.134 36.4492V23.9541H118.549V46ZM128.261 46H133.666L126.196 35.8926L123.31 39.1006L128.261 46ZM134.427 38.8662C134.427 41.1611 135.15 42.9922 136.595 44.3594C138.041 45.7266 139.94 46.4102 142.294 46.4102C144.637 46.4102 146.532 45.7266 147.977 44.3594C149.422 42.9922 150.145 41.1611 150.145 38.8662V38.3828C150.145 36.0977 149.422 34.2715 147.977 32.9043C146.532 31.5273 144.637 30.8389 142.294 30.8389C139.95 30.8389 138.05 31.5273 136.595 32.9043C135.15 34.2715 134.427 36.0977 134.427 38.3828V38.8662ZM139.115 38.1777C139.115 36.918 139.388 35.9463 139.935 35.2627C140.492 34.5791 141.278 34.2373 142.294 34.2373C143.299 34.2373 144.081 34.5791 144.637 35.2627C145.194 35.9463 145.472 36.918 145.472 38.1777V39.0566C145.472 40.3262 145.199 41.3076 144.652 42.001C144.105 42.6943 143.319 43.041 142.294 43.041C141.268 43.041 140.482 42.6943 139.935 42.001C139.388 41.3076 139.115 40.3311 139.115 39.0713V38.1777ZM153.294 46H157.879V36.3467C158.143 35.751 158.489 35.2822 158.919 34.9404C159.358 34.5986 159.876 34.4277 160.472 34.4277C161.165 34.4277 161.688 34.6279 162.039 35.0283C162.4 35.4189 162.581 36.0537 162.581 36.9326V46H167.181V36.3467C167.444 35.7607 167.796 35.2969 168.235 34.9551C168.685 34.6035 169.207 34.4277 169.803 34.4277C170.486 34.4375 171.004 34.6377 171.355 35.0283C171.707 35.4189 171.883 36.0439 171.883 36.9033V46H176.482V36.7568C176.482 34.6768 176.033 33.1924 175.135 32.3037C174.236 31.4053 173.05 30.9561 171.575 30.9561C170.55 30.9561 169.593 31.1807 168.704 31.6299C167.815 32.0693 167.112 32.709 166.595 33.5488H166.551C166.219 32.6992 165.672 32.0596 164.91 31.6299C164.148 31.1904 163.245 30.9707 162.2 30.9707C161.272 30.9707 160.428 31.1611 159.666 31.542C158.904 31.9131 158.294 32.4404 157.835 33.124H157.762L157.703 31.293H153.294V46Z"
        fill="#4B73D9" />
    <defs>
        <clipPath id="clip0_611_16204">
            <rect width="73.7587" height="73.7587" fill="white" />
        </clipPath>
    </defs>
</svg>
